<mxfile host="Electron" modified="2024-04-06T17:46:33.182Z" agent="Mozilla/5.0 (Windows NT 10.0; Win64; x64) AppleWebKit/537.36 (KHTML, like Gecko) draw.io/21.2.1 Chrome/112.0.5615.87 Electron/24.1.2 Safari/537.36" etag="m4d-4tfaBuTCx293t0QR" version="21.2.1" type="device">
  <diagram name="Page-1" id="CMEaHwI43TF5UFnff1LS">
    <mxGraphModel dx="2885" dy="1180" grid="1" gridSize="10" guides="1" tooltips="1" connect="1" arrows="1" fold="1" page="1" pageScale="1" pageWidth="827" pageHeight="1169" math="0" shadow="0">
      <root>
        <mxCell id="0" />
        <mxCell id="1" parent="0" />
        <mxCell id="RJUtZ5t80le3RNeQ5MNN-5" value="&lt;b&gt;&lt;font color=&quot;#ff0000&quot;&gt;Read 2 PhD Thesis&amp;nbsp;&lt;/font&gt;&lt;/b&gt;" style="text;html=1;strokeColor=none;fillColor=none;align=center;verticalAlign=middle;whiteSpace=wrap;rounded=0;" parent="1" vertex="1">
          <mxGeometry x="150" y="120" width="160" height="30" as="geometry" />
        </mxCell>
        <mxCell id="Q3gOCMNF8MpdkcXzCCnj-49" value="&lt;b&gt;Preparations&lt;/b&gt;" style="rounded=0;whiteSpace=wrap;html=1;fillColor=#cdeb8b;strokeColor=#36393d;" parent="1" vertex="1">
          <mxGeometry x="-360" y="70" width="500" height="20" as="geometry" />
        </mxCell>
        <mxCell id="Q3gOCMNF8MpdkcXzCCnj-1" value="&lt;b&gt;&lt;font style=&quot;font-size: 14px;&quot;&gt;Methodology; Case study specifications; Results; Analysis&lt;/font&gt;&lt;/b&gt;" style="rounded=1;whiteSpace=wrap;html=1;fillColor=#e1d5e7;strokeColor=#9673a6;" parent="1" vertex="1">
          <mxGeometry x="950" y="300" width="340" height="40" as="geometry" />
        </mxCell>
        <mxCell id="Q3gOCMNF8MpdkcXzCCnj-3" value="&lt;font size=&quot;1&quot; style=&quot;&quot;&gt;&lt;b style=&quot;font-size: 16px;&quot;&gt;April&lt;/b&gt;&lt;/font&gt;" style="rounded=0;whiteSpace=wrap;html=1;fillColor=#f5f5f5;fontColor=#333333;strokeColor=#666666;" parent="1" vertex="1">
          <mxGeometry x="-360" y="90" width="260" height="30" as="geometry" />
        </mxCell>
        <mxCell id="Q3gOCMNF8MpdkcXzCCnj-4" value="&lt;font size=&quot;1&quot; style=&quot;&quot;&gt;&lt;b style=&quot;font-size: 16px;&quot;&gt;May&lt;/b&gt;&lt;/font&gt;" style="rounded=0;whiteSpace=wrap;html=1;fillColor=#f5f5f5;fontColor=#333333;strokeColor=#666666;" parent="1" vertex="1">
          <mxGeometry x="-100" y="90" width="310" height="30" as="geometry" />
        </mxCell>
        <mxCell id="Q3gOCMNF8MpdkcXzCCnj-5" value="&lt;font size=&quot;1&quot; style=&quot;&quot;&gt;&lt;b style=&quot;font-size: 16px;&quot;&gt;June&lt;/b&gt;&lt;/font&gt;" style="rounded=0;whiteSpace=wrap;html=1;fillColor=#f5f5f5;fontColor=#333333;strokeColor=#666666;" parent="1" vertex="1">
          <mxGeometry x="210" y="90" width="300" height="30" as="geometry" />
        </mxCell>
        <mxCell id="Q3gOCMNF8MpdkcXzCCnj-6" value="&lt;font size=&quot;1&quot; style=&quot;&quot;&gt;&lt;b style=&quot;font-size: 16px;&quot;&gt;July&lt;/b&gt;&lt;/font&gt;" style="rounded=0;whiteSpace=wrap;html=1;fillColor=#f5f5f5;fontColor=#333333;strokeColor=#666666;" parent="1" vertex="1">
          <mxGeometry x="510" y="90" width="310" height="30" as="geometry" />
        </mxCell>
        <mxCell id="Q3gOCMNF8MpdkcXzCCnj-7" value="&lt;font size=&quot;1&quot; style=&quot;&quot;&gt;&lt;b style=&quot;font-size: 16px;&quot;&gt;August&lt;/b&gt;&lt;/font&gt;" style="rounded=0;whiteSpace=wrap;html=1;fillColor=#f5f5f5;fontColor=#333333;strokeColor=#666666;" parent="1" vertex="1">
          <mxGeometry x="820" y="90" width="310" height="30" as="geometry" />
        </mxCell>
        <mxCell id="Q3gOCMNF8MpdkcXzCCnj-8" value="&lt;font size=&quot;1&quot; style=&quot;&quot;&gt;&lt;b style=&quot;font-size: 16px;&quot;&gt;September&lt;/b&gt;&lt;/font&gt;" style="rounded=0;whiteSpace=wrap;html=1;fillColor=#f5f5f5;fontColor=#333333;strokeColor=#666666;" parent="1" vertex="1">
          <mxGeometry x="1130" y="90" width="250" height="30" as="geometry" />
        </mxCell>
        <mxCell id="Q3gOCMNF8MpdkcXzCCnj-10" value="&lt;b&gt;&lt;font style=&quot;font-size: 14px;&quot;&gt;REHO&lt;/font&gt;&lt;/b&gt;" style="rounded=1;whiteSpace=wrap;html=1;fillColor=#0050ef;strokeColor=#001DBC;fontColor=#ffffff;" parent="1" vertex="1">
          <mxGeometry x="-560" y="170" width="157" height="50" as="geometry" />
        </mxCell>
        <mxCell id="Q3gOCMNF8MpdkcXzCCnj-12" value="&lt;b&gt;&lt;font style=&quot;font-size: 14px;&quot;&gt;LCA&lt;/font&gt;&lt;/b&gt;" style="rounded=1;whiteSpace=wrap;html=1;fillColor=#60a917;strokeColor=#2D7600;fontColor=#ffffff;" parent="1" vertex="1">
          <mxGeometry x="-563" y="280" width="160" height="50" as="geometry" />
        </mxCell>
        <mxCell id="Q3gOCMNF8MpdkcXzCCnj-13" value="&lt;b&gt;&lt;font style=&quot;font-size: 14px;&quot;&gt;Multi-criteria Optimization&lt;/font&gt;&lt;/b&gt;" style="rounded=1;whiteSpace=wrap;html=1;fillColor=#a20025;strokeColor=#6F0000;fontColor=#ffffff;" parent="1" vertex="1">
          <mxGeometry x="-561.5" y="390" width="158.5" height="50" as="geometry" />
        </mxCell>
        <mxCell id="Q3gOCMNF8MpdkcXzCCnj-15" value="&lt;b&gt;&lt;font style=&quot;font-size: 24px;&quot;&gt;Multi-criteria analysis based on Life-cycle assessment of a positive energy district accounting for a country context – application to real case study’.&lt;/font&gt;&lt;/b&gt;" style="text;whiteSpace=wrap;html=1;align=center;" parent="1" vertex="1">
          <mxGeometry x="-360" y="10" width="1740" height="80" as="geometry" />
        </mxCell>
        <mxCell id="RJUtZ5t80le3RNeQ5MNN-84" style="edgeStyle=orthogonalEdgeStyle;rounded=0;orthogonalLoop=1;jettySize=auto;html=1;exitX=1;exitY=0.5;exitDx=0;exitDy=0;entryX=0.914;entryY=0.975;entryDx=0;entryDy=0;entryPerimeter=0;" parent="1" source="Q3gOCMNF8MpdkcXzCCnj-16" target="Q3gOCMNF8MpdkcXzCCnj-32" edge="1">
          <mxGeometry relative="1" as="geometry" />
        </mxCell>
        <mxCell id="Q3gOCMNF8MpdkcXzCCnj-16" value="&lt;b&gt;&lt;font style=&quot;font-size: 14px;&quot;&gt;Methodology enhancement&lt;/font&gt;&lt;/b&gt;" style="rounded=1;whiteSpace=wrap;html=1;fillColor=#d5e8d4;strokeColor=#82b366;" parent="1" vertex="1">
          <mxGeometry x="50" y="260" width="240" height="40" as="geometry" />
        </mxCell>
        <mxCell id="RJUtZ5t80le3RNeQ5MNN-85" style="edgeStyle=orthogonalEdgeStyle;rounded=0;orthogonalLoop=1;jettySize=auto;html=1;exitX=1;exitY=0.5;exitDx=0;exitDy=0;entryX=0.914;entryY=1.125;entryDx=0;entryDy=0;entryPerimeter=0;" parent="1" source="Q3gOCMNF8MpdkcXzCCnj-17" target="Q3gOCMNF8MpdkcXzCCnj-32" edge="1">
          <mxGeometry relative="1" as="geometry" />
        </mxCell>
        <mxCell id="Q3gOCMNF8MpdkcXzCCnj-17" value="&lt;span style=&quot;font-size: 14px;&quot;&gt;&lt;b&gt;LCA database&lt;/b&gt;&lt;/span&gt;" style="rounded=1;whiteSpace=wrap;html=1;fillColor=#d5e8d4;strokeColor=#82b366;" parent="1" vertex="1">
          <mxGeometry x="140" y="320" width="330" height="40" as="geometry" />
        </mxCell>
        <mxCell id="Q3gOCMNF8MpdkcXzCCnj-38" style="edgeStyle=orthogonalEdgeStyle;rounded=0;orthogonalLoop=1;jettySize=auto;html=1;exitX=1;exitY=0.5;exitDx=0;exitDy=0;entryX=0;entryY=0.5;entryDx=0;entryDy=0;" parent="1" source="Q3gOCMNF8MpdkcXzCCnj-18" target="Q3gOCMNF8MpdkcXzCCnj-32" edge="1">
          <mxGeometry relative="1" as="geometry" />
        </mxCell>
        <mxCell id="Q3gOCMNF8MpdkcXzCCnj-18" value="&lt;span style=&quot;font-size: 14px;&quot;&gt;&lt;b&gt;Learn how to use REHO&lt;/b&gt;&lt;/span&gt;" style="rounded=1;whiteSpace=wrap;html=1;fillColor=#dae8fc;strokeColor=#6c8ebf;" parent="1" vertex="1">
          <mxGeometry x="-360" y="175" width="500" height="40" as="geometry" />
        </mxCell>
        <mxCell id="Q3gOCMNF8MpdkcXzCCnj-19" value="&lt;font style=&quot;font-size: 24px;&quot;&gt;&lt;b&gt;Write master thesis and prepare for the final presentation&lt;/b&gt;&lt;/font&gt;" style="rounded=1;whiteSpace=wrap;html=1;fillColor=#dae8fc;strokeColor=#6c8ebf;" parent="1" vertex="1">
          <mxGeometry x="520" y="150" width="860" height="55" as="geometry" />
        </mxCell>
        <mxCell id="Q3gOCMNF8MpdkcXzCCnj-36" style="edgeStyle=orthogonalEdgeStyle;rounded=0;orthogonalLoop=1;jettySize=auto;html=1;exitX=1;exitY=0.5;exitDx=0;exitDy=0;entryX=0;entryY=0.5;entryDx=0;entryDy=0;" parent="1" source="Q3gOCMNF8MpdkcXzCCnj-20" target="Q3gOCMNF8MpdkcXzCCnj-16" edge="1">
          <mxGeometry relative="1" as="geometry">
            <Array as="points">
              <mxPoint x="-90" y="305" />
              <mxPoint x="-90" y="280" />
            </Array>
          </mxGeometry>
        </mxCell>
        <mxCell id="Q3gOCMNF8MpdkcXzCCnj-37" style="edgeStyle=orthogonalEdgeStyle;rounded=0;orthogonalLoop=1;jettySize=auto;html=1;exitX=1;exitY=0.5;exitDx=0;exitDy=0;entryX=0;entryY=0.5;entryDx=0;entryDy=0;" parent="1" source="Q3gOCMNF8MpdkcXzCCnj-20" target="Q3gOCMNF8MpdkcXzCCnj-17" edge="1">
          <mxGeometry relative="1" as="geometry">
            <Array as="points">
              <mxPoint x="-90" y="305" />
              <mxPoint x="-90" y="340" />
            </Array>
          </mxGeometry>
        </mxCell>
        <mxCell id="Q3gOCMNF8MpdkcXzCCnj-20" value="&lt;font style=&quot;font-size: 12px;&quot;&gt;&lt;b&gt;Understanding the methodology of LCA(REHO)&lt;/b&gt;&lt;/font&gt;" style="rounded=1;whiteSpace=wrap;html=1;fillColor=#d5e8d4;strokeColor=#82b366;" parent="1" vertex="1">
          <mxGeometry x="-320" y="285" width="180" height="40" as="geometry" />
        </mxCell>
        <mxCell id="Q3gOCMNF8MpdkcXzCCnj-21" value="&lt;b&gt;Kick-off presentation&lt;/b&gt;" style="text;html=1;strokeColor=none;fillColor=none;align=center;verticalAlign=middle;whiteSpace=wrap;rounded=0;" parent="1" vertex="1">
          <mxGeometry x="-250" y="130" width="80" height="30" as="geometry" />
        </mxCell>
        <mxCell id="Q3gOCMNF8MpdkcXzCCnj-26" value="&lt;b&gt;04/04&lt;/b&gt;" style="text;html=1;strokeColor=none;fillColor=none;align=center;verticalAlign=middle;whiteSpace=wrap;rounded=0;" parent="1" vertex="1">
          <mxGeometry x="-420" y="90" width="60" height="30" as="geometry" />
        </mxCell>
        <mxCell id="Q3gOCMNF8MpdkcXzCCnj-27" value="&lt;b&gt;25/09&lt;/b&gt;" style="text;html=1;strokeColor=none;fillColor=none;align=center;verticalAlign=middle;whiteSpace=wrap;rounded=0;" parent="1" vertex="1">
          <mxGeometry x="1380" y="90" width="60" height="30" as="geometry" />
        </mxCell>
        <mxCell id="Q3gOCMNF8MpdkcXzCCnj-46" style="edgeStyle=orthogonalEdgeStyle;rounded=0;orthogonalLoop=1;jettySize=auto;html=1;exitX=1;exitY=0.5;exitDx=0;exitDy=0;entryX=0.25;entryY=0;entryDx=0;entryDy=0;" parent="1" source="Q3gOCMNF8MpdkcXzCCnj-32" target="Q3gOCMNF8MpdkcXzCCnj-1" edge="1">
          <mxGeometry relative="1" as="geometry" />
        </mxCell>
        <mxCell id="Q3gOCMNF8MpdkcXzCCnj-32" value="&lt;b&gt;&lt;font style=&quot;font-size: 10.5px;&quot;&gt;Integration of LCA framework within REHO&lt;/font&gt;&lt;/b&gt;" style="rounded=1;whiteSpace=wrap;html=1;fillColor=#fff2cc;strokeColor=#d6b656;" parent="1" vertex="1">
          <mxGeometry x="660" y="215" width="80" height="40" as="geometry" />
        </mxCell>
        <mxCell id="Q3gOCMNF8MpdkcXzCCnj-47" style="edgeStyle=orthogonalEdgeStyle;rounded=0;orthogonalLoop=1;jettySize=auto;html=1;exitX=1;exitY=0.5;exitDx=0;exitDy=0;entryX=0.25;entryY=1;entryDx=0;entryDy=0;" parent="1" source="Q3gOCMNF8MpdkcXzCCnj-33" target="Q3gOCMNF8MpdkcXzCCnj-1" edge="1">
          <mxGeometry relative="1" as="geometry" />
        </mxCell>
        <mxCell id="Q3gOCMNF8MpdkcXzCCnj-33" value="&lt;span style=&quot;font-size: 14px;&quot;&gt;&lt;b&gt;Extend objective function (to account for several objects)&lt;/b&gt;&lt;/span&gt;" style="rounded=1;whiteSpace=wrap;html=1;fillColor=#f8cecc;strokeColor=#b85450;" parent="1" vertex="1">
          <mxGeometry x="270" y="395" width="440" height="40" as="geometry" />
        </mxCell>
        <mxCell id="Q3gOCMNF8MpdkcXzCCnj-35" style="edgeStyle=orthogonalEdgeStyle;rounded=0;orthogonalLoop=1;jettySize=auto;html=1;exitX=1;exitY=0.5;exitDx=0;exitDy=0;entryX=0;entryY=0.5;entryDx=0;entryDy=0;" parent="1" source="Q3gOCMNF8MpdkcXzCCnj-34" target="Q3gOCMNF8MpdkcXzCCnj-33" edge="1">
          <mxGeometry relative="1" as="geometry" />
        </mxCell>
        <mxCell id="Q3gOCMNF8MpdkcXzCCnj-34" value="&lt;span style=&quot;font-size: 14px;&quot;&gt;&lt;b&gt;Literature review for multi-criteria optimization&lt;/b&gt;&lt;/span&gt;" style="rounded=1;whiteSpace=wrap;html=1;fillColor=#f8cecc;strokeColor=#b85450;" parent="1" vertex="1">
          <mxGeometry x="-360" y="395" width="500" height="40" as="geometry" />
        </mxCell>
        <mxCell id="xHu4jBwgOLgzZk3djkA9-2" style="edgeStyle=orthogonalEdgeStyle;rounded=0;orthogonalLoop=1;jettySize=auto;html=1;exitX=0;exitY=0.5;exitDx=0;exitDy=0;entryX=0.25;entryY=1;entryDx=0;entryDy=0;dashed=1;" parent="1" source="Q3gOCMNF8MpdkcXzCCnj-39" target="Q3gOCMNF8MpdkcXzCCnj-17" edge="1">
          <mxGeometry relative="1" as="geometry" />
        </mxCell>
        <mxCell id="Q3gOCMNF8MpdkcXzCCnj-39" value="&lt;b&gt;Data from pilots&lt;/b&gt;" style="text;html=1;strokeColor=none;fillColor=none;align=center;verticalAlign=middle;whiteSpace=wrap;rounded=0;" parent="1" vertex="1">
          <mxGeometry x="310" y="530" width="80" height="30" as="geometry" />
        </mxCell>
        <mxCell id="Q3gOCMNF8MpdkcXzCCnj-44" style="edgeStyle=orthogonalEdgeStyle;rounded=0;orthogonalLoop=1;jettySize=auto;html=1;exitX=1;exitY=0.5;exitDx=0;exitDy=0;entryX=0;entryY=0.5;entryDx=0;entryDy=0;" parent="1" source="Q3gOCMNF8MpdkcXzCCnj-42" target="Q3gOCMNF8MpdkcXzCCnj-43" edge="1">
          <mxGeometry relative="1" as="geometry" />
        </mxCell>
        <mxCell id="Q3gOCMNF8MpdkcXzCCnj-42" value="&lt;b&gt;&lt;font style=&quot;font-size: 14px;&quot;&gt;Case study&lt;/font&gt;&lt;/b&gt;" style="rounded=1;whiteSpace=wrap;html=1;fillColor=#6a00ff;strokeColor=#3700CC;fontColor=#ffffff;" parent="1" vertex="1">
          <mxGeometry x="-563" y="500" width="160" height="50" as="geometry" />
        </mxCell>
        <mxCell id="Q3gOCMNF8MpdkcXzCCnj-48" style="edgeStyle=orthogonalEdgeStyle;rounded=0;orthogonalLoop=1;jettySize=auto;html=1;exitX=1;exitY=0.5;exitDx=0;exitDy=0;entryX=0.5;entryY=1;entryDx=0;entryDy=0;" parent="1" source="Q3gOCMNF8MpdkcXzCCnj-43" target="Q3gOCMNF8MpdkcXzCCnj-1" edge="1">
          <mxGeometry relative="1" as="geometry" />
        </mxCell>
        <mxCell id="Q3gOCMNF8MpdkcXzCCnj-43" value="&lt;span style=&quot;font-size: 14px;&quot;&gt;&lt;b&gt;Pilot datasets&lt;/b&gt;&lt;/span&gt;" style="rounded=1;whiteSpace=wrap;html=1;fillColor=#d0cee2;strokeColor=#56517e;" parent="1" vertex="1">
          <mxGeometry x="670" y="505" width="200" height="40" as="geometry" />
        </mxCell>
        <mxCell id="Q3gOCMNF8MpdkcXzCCnj-50" value="&lt;b&gt;Development&lt;/b&gt;" style="rounded=0;whiteSpace=wrap;html=1;fillColor=#cce5ff;strokeColor=#36393d;" parent="1" vertex="1">
          <mxGeometry x="140" y="70" width="720" height="20" as="geometry" />
        </mxCell>
        <mxCell id="Q3gOCMNF8MpdkcXzCCnj-51" value="&lt;b&gt;Application and analysis&lt;/b&gt;" style="rounded=0;whiteSpace=wrap;html=1;fillColor=#ffcccc;strokeColor=#36393d;" parent="1" vertex="1">
          <mxGeometry x="860" y="70" width="520" height="20" as="geometry" />
        </mxCell>
        <mxCell id="RJUtZ5t80le3RNeQ5MNN-1" value="&lt;b&gt;&lt;font color=&quot;#ff0000&quot;&gt;subtasks&lt;/font&gt;&lt;/b&gt;" style="text;html=1;strokeColor=none;fillColor=none;align=center;verticalAlign=middle;whiteSpace=wrap;rounded=0;" parent="1" vertex="1">
          <mxGeometry x="60" y="145" width="130" height="30" as="geometry" />
        </mxCell>
        <mxCell id="RJUtZ5t80le3RNeQ5MNN-2" value="&lt;b&gt;&lt;font color=&quot;#3399ff&quot;&gt;Check point&lt;/font&gt;&lt;/b&gt;" style="text;html=1;strokeColor=none;fillColor=none;align=center;verticalAlign=middle;whiteSpace=wrap;rounded=0;" parent="1" vertex="1">
          <mxGeometry x="1100" y="240" width="130" height="30" as="geometry" />
        </mxCell>
        <mxCell id="RJUtZ5t80le3RNeQ5MNN-3" value="&lt;b&gt;&lt;font color=&quot;#3399ff&quot;&gt;Check point: write an introduction for how to do a MCDA&lt;/font&gt;&lt;/b&gt;" style="text;html=1;strokeColor=none;fillColor=none;align=center;verticalAlign=middle;whiteSpace=wrap;rounded=0;" parent="1" vertex="1">
          <mxGeometry x="-210" y="365" width="340" height="30" as="geometry" />
        </mxCell>
        <mxCell id="RJUtZ5t80le3RNeQ5MNN-4" value="" style="shape=curlyBracket;whiteSpace=wrap;html=1;rounded=1;labelPosition=left;verticalLabelPosition=middle;align=right;verticalAlign=middle;" parent="1" vertex="1">
          <mxGeometry x="160" y="135" width="10" height="50" as="geometry" />
        </mxCell>
        <mxCell id="RJUtZ5t80le3RNeQ5MNN-6" value="&lt;b&gt;&lt;font color=&quot;#ff0000&quot;&gt;Browse REHO websites&lt;/font&gt;&lt;/b&gt;" style="text;html=1;strokeColor=none;fillColor=none;align=center;verticalAlign=middle;whiteSpace=wrap;rounded=0;" parent="1" vertex="1">
          <mxGeometry x="150" y="145" width="180" height="30" as="geometry" />
        </mxCell>
        <mxCell id="RJUtZ5t80le3RNeQ5MNN-7" value="&lt;font color=&quot;#ff0000&quot;&gt;&lt;b&gt;Understand Python scripts&lt;/b&gt;&lt;/font&gt;" style="text;html=1;strokeColor=none;fillColor=none;align=center;verticalAlign=middle;whiteSpace=wrap;rounded=0;" parent="1" vertex="1">
          <mxGeometry x="140" y="170" width="220" height="30" as="geometry" />
        </mxCell>
        <mxCell id="RJUtZ5t80le3RNeQ5MNN-9" value="&lt;b&gt;&lt;font color=&quot;#ff0000&quot;&gt;subtasks:&amp;nbsp;&lt;/font&gt;&lt;/b&gt;" style="text;html=1;strokeColor=none;fillColor=none;align=center;verticalAlign=middle;whiteSpace=wrap;rounded=0;" parent="1" vertex="1">
          <mxGeometry x="-320" y="460" width="130" height="30" as="geometry" />
        </mxCell>
        <mxCell id="RJUtZ5t80le3RNeQ5MNN-57" value="" style="shape=curlyBracket;whiteSpace=wrap;html=1;rounded=1;labelPosition=left;verticalLabelPosition=middle;align=right;verticalAlign=middle;" parent="1" vertex="1">
          <mxGeometry x="-220" y="450" width="10" height="50" as="geometry" />
        </mxCell>
        <mxCell id="RJUtZ5t80le3RNeQ5MNN-58" value="&lt;b&gt;&lt;font color=&quot;#ff0000&quot;&gt;Read Thesis from UCLouvain &amp;amp; EPFL&lt;/font&gt;&lt;/b&gt;" style="text;html=1;strokeColor=none;fillColor=none;align=center;verticalAlign=middle;whiteSpace=wrap;rounded=0;" parent="1" vertex="1">
          <mxGeometry x="-230" y="435" width="260" height="30" as="geometry" />
        </mxCell>
        <mxCell id="RJUtZ5t80le3RNeQ5MNN-59" value="&lt;font color=&quot;#ff0000&quot;&gt;&lt;b&gt;Learn about Researches from other institutions&lt;/b&gt;&lt;/font&gt;" style="text;html=1;strokeColor=none;fillColor=none;align=center;verticalAlign=middle;whiteSpace=wrap;rounded=0;" parent="1" vertex="1">
          <mxGeometry x="-220" y="482.5" width="300" height="30" as="geometry" />
        </mxCell>
        <mxCell id="RJUtZ5t80le3RNeQ5MNN-60" value="&lt;b&gt;&lt;font color=&quot;#ff0000&quot;&gt;subtask:&amp;nbsp; build up a envrironmental impacts matrix&lt;/font&gt;&lt;/b&gt;" style="text;html=1;strokeColor=none;fillColor=none;align=center;verticalAlign=middle;whiteSpace=wrap;rounded=0;" parent="1" vertex="1">
          <mxGeometry x="130" y="295" width="330" height="30" as="geometry" />
        </mxCell>
        <mxCell id="RJUtZ5t80le3RNeQ5MNN-61" value="&lt;b&gt;&lt;font color=&quot;#ff0000&quot;&gt;subtasks: 1. do literature review 2. enhance LCA method&lt;br&gt;&lt;/font&gt;&lt;/b&gt;" style="text;html=1;strokeColor=none;fillColor=none;align=center;verticalAlign=middle;whiteSpace=wrap;rounded=0;" parent="1" vertex="1">
          <mxGeometry x="-10" y="230" width="380" height="30" as="geometry" />
        </mxCell>
        <mxCell id="RJUtZ5t80le3RNeQ5MNN-62" value="&lt;b&gt;&lt;font color=&quot;#3399ff&quot;&gt;Check point: do a case study&lt;/font&gt;&lt;/b&gt;" style="text;html=1;strokeColor=none;fillColor=none;align=center;verticalAlign=middle;whiteSpace=wrap;rounded=0;" parent="1" vertex="1">
          <mxGeometry x="-100" y="145" width="170" height="30" as="geometry" />
        </mxCell>
        <mxCell id="RJUtZ5t80le3RNeQ5MNN-63" value="&lt;b&gt;&lt;font color=&quot;#3399ff&quot;&gt;Check point: give a detailed objective function (pay more attention on the methodology regardless of weights)&lt;/font&gt;&lt;/b&gt;" style="text;html=1;strokeColor=none;fillColor=none;align=center;verticalAlign=middle;whiteSpace=wrap;rounded=0;" parent="1" vertex="1">
          <mxGeometry x="695" y="370" width="255" height="30" as="geometry" />
        </mxCell>
        <mxCell id="RJUtZ5t80le3RNeQ5MNN-64" value="&lt;b&gt;&lt;font color=&quot;#ff0000&quot;&gt;subtasks:&amp;nbsp;&lt;/font&gt;&lt;/b&gt;" style="text;html=1;strokeColor=none;fillColor=none;align=center;verticalAlign=middle;whiteSpace=wrap;rounded=0;" parent="1" vertex="1">
          <mxGeometry x="200" y="460" width="130" height="30" as="geometry" />
        </mxCell>
        <mxCell id="RJUtZ5t80le3RNeQ5MNN-66" value="" style="shape=curlyBracket;whiteSpace=wrap;html=1;rounded=1;labelPosition=left;verticalLabelPosition=middle;align=right;verticalAlign=middle;" parent="1" vertex="1">
          <mxGeometry x="300" y="450" width="10" height="50" as="geometry" />
        </mxCell>
        <mxCell id="RJUtZ5t80le3RNeQ5MNN-67" value="&lt;font color=&quot;#ff0000&quot;&gt;&lt;b&gt;do literature review&lt;/b&gt;&lt;/font&gt;" style="text;whiteSpace=wrap;html=1;" parent="1" vertex="1">
          <mxGeometry x="320" y="435" width="180" height="25" as="geometry" />
        </mxCell>
        <mxCell id="RJUtZ5t80le3RNeQ5MNN-68" value="&lt;font color=&quot;#ff0000&quot;&gt;&lt;b&gt;have a discussion&lt;/b&gt;&lt;/font&gt;" style="text;whiteSpace=wrap;html=1;" parent="1" vertex="1">
          <mxGeometry x="320" y="485" width="110" height="25" as="geometry" />
        </mxCell>
        <mxCell id="RJUtZ5t80le3RNeQ5MNN-69" value="&lt;b&gt;&lt;font color=&quot;#3399ff&quot;&gt;Check point: upgraded REHO model&lt;/font&gt;&lt;/b&gt;" style="text;html=1;strokeColor=none;fillColor=none;align=center;verticalAlign=middle;whiteSpace=wrap;rounded=0;" parent="1" vertex="1">
          <mxGeometry x="730" y="230" width="240" height="30" as="geometry" />
        </mxCell>
        <mxCell id="RJUtZ5t80le3RNeQ5MNN-70" value="&lt;b&gt;&lt;font color=&quot;#ff0000&quot;&gt;subtask:&amp;nbsp; modify the codes&lt;/font&gt;&lt;/b&gt;" style="text;html=1;strokeColor=none;fillColor=none;align=center;verticalAlign=middle;whiteSpace=wrap;rounded=0;" parent="1" vertex="1">
          <mxGeometry x="732.5" y="210" width="180" height="30" as="geometry" />
        </mxCell>
        <mxCell id="RJUtZ5t80le3RNeQ5MNN-71" style="edgeStyle=orthogonalEdgeStyle;rounded=0;orthogonalLoop=1;jettySize=auto;html=1;exitX=0.5;exitY=0;exitDx=0;exitDy=0;dashed=1;strokeColor=#B5739D;" parent="1" source="Q3gOCMNF8MpdkcXzCCnj-1" edge="1">
          <mxGeometry relative="1" as="geometry">
            <mxPoint x="1120" y="210" as="targetPoint" />
          </mxGeometry>
        </mxCell>
        <mxCell id="RJUtZ5t80le3RNeQ5MNN-72" value="&lt;b&gt;&lt;font color=&quot;#3399ff&quot;&gt;Check point: write an introduction about how they do LCA and critisize&lt;/font&gt;&lt;/b&gt;" style="text;html=1;strokeColor=none;fillColor=none;align=center;verticalAlign=middle;whiteSpace=wrap;rounded=0;" parent="1" vertex="1">
          <mxGeometry x="-335" y="250" width="210" height="30" as="geometry" />
        </mxCell>
        <mxCell id="RJUtZ5t80le3RNeQ5MNN-73" value="&lt;b&gt;&lt;font color=&quot;#3399ff&quot;&gt;Check point: show the matrix&lt;/font&gt;&lt;/b&gt;" style="text;html=1;strokeColor=none;fillColor=none;align=center;verticalAlign=middle;whiteSpace=wrap;rounded=0;" parent="1" vertex="1">
          <mxGeometry x="445" y="310" width="285" height="30" as="geometry" />
        </mxCell>
        <mxCell id="RJUtZ5t80le3RNeQ5MNN-74" value="&lt;b&gt;&lt;font color=&quot;#3399ff&quot;&gt;Check point: introduce and discuss the methology&lt;/font&gt;&lt;/b&gt;" style="text;html=1;strokeColor=none;fillColor=none;align=center;verticalAlign=middle;whiteSpace=wrap;rounded=0;" parent="1" vertex="1">
          <mxGeometry x="389" y="250" width="310" height="35" as="geometry" />
        </mxCell>
        <mxCell id="RJUtZ5t80le3RNeQ5MNN-77" value="&lt;b&gt;&lt;font color=&quot;#3399ff&quot;&gt;Check point: extract the information from the datasets from pilots and transform them into csv files which can be implemented by REHO&lt;/font&gt;&lt;/b&gt;" style="text;html=1;strokeColor=none;fillColor=none;align=center;verticalAlign=middle;whiteSpace=wrap;rounded=0;" parent="1" vertex="1">
          <mxGeometry x="555" y="470" width="430" height="30" as="geometry" />
        </mxCell>
        <mxCell id="RJUtZ5t80le3RNeQ5MNN-79" value="&lt;span style=&quot;font-size: 14px;&quot;&gt;&lt;b&gt;Reporting&lt;/b&gt;&lt;/span&gt;" style="rounded=1;whiteSpace=wrap;html=1;fillColor=#1ba1e2;strokeColor=#006EAF;fontColor=#ffffff;" parent="1" vertex="1">
          <mxGeometry x="-563" y="610" width="160" height="50" as="geometry" />
        </mxCell>
        <mxCell id="RJUtZ5t80le3RNeQ5MNN-83" style="edgeStyle=orthogonalEdgeStyle;rounded=0;orthogonalLoop=1;jettySize=auto;html=1;exitX=0.75;exitY=0;exitDx=0;exitDy=0;dashed=1;strokeColor=#B5739D;" parent="1" source="RJUtZ5t80le3RNeQ5MNN-80" edge="1">
          <mxGeometry relative="1" as="geometry">
            <mxPoint x="940" y="210" as="targetPoint" />
            <Array as="points">
              <mxPoint x="940" y="615" />
            </Array>
          </mxGeometry>
        </mxCell>
        <mxCell id="RJUtZ5t80le3RNeQ5MNN-80" value="&lt;span style=&quot;font-size: 17px;&quot;&gt;&lt;b&gt;Building online documentation&lt;/b&gt;&lt;/span&gt;" style="rounded=1;whiteSpace=wrap;html=1;fillColor=#fff2cc;strokeColor=#d6b656;" parent="1" vertex="1">
          <mxGeometry x="-360" y="615" width="1740" height="40" as="geometry" />
        </mxCell>
        <mxCell id="RJUtZ5t80le3RNeQ5MNN-81" value="&lt;font size=&quot;1&quot; style=&quot;&quot;&gt;&lt;b style=&quot;font-size: 16px;&quot;&gt;Article publishing preparations&lt;/b&gt;&lt;/font&gt;" style="rounded=1;whiteSpace=wrap;html=1;fillColor=#cce5ff;strokeColor=#36393d;" parent="1" vertex="1">
          <mxGeometry x="890" y="615" width="490" height="40" as="geometry" />
        </mxCell>
      </root>
    </mxGraphModel>
  </diagram>
</mxfile>
